Coordinates
version=1
nRows=25
nColumns=33
inDegrees=yes

Units are S.I. units (second, meters, Newtons, ...)
Angles are in degrees.

endheader
time	ground_thorax_rot_x	ground_thorax_rot_y	ground_thorax_rot_z	ground_thorax_tx	ground_thorax_ty	ground_thorax_tz	clav_prot_r	clav_elev_r	scapula_abduction_r	scapula_elevation_r	scapula_upward_rot_r	scapula_winging_r	shoulder_elv_r	plane_of_elev_r	axial_rot_r	elbow_flexion_r	pro_sup_r	wrist_flex_r	wrist_dev_r	clav_prot_l	clav_elev_l	scapula_abduction_l	scapula_elevation_l	scapula_upward_rot_l	scapula_winging_l	shoulder_elv_l	plane_of_elev_l	axial_rot_l	elbow_flexion_l	pro_sup_l	wrist_flex_l	wrist_dev_l	
7.3900	38.889587	12.943208	15.022130	-129.401794	793.803504	4.741323	16.976150	38.774736	41.233470	45.000000	-39.720592	-1881.174656	-3709.415168	143.004602	180.000000	1090.952495	49.295666	22.261792	11.529968	6.452714	-45.000000	-39.260122	45.000000	-42.502243	1168.193255	-1173.455334	133.796119	-180.000000	-349.548081	39.137341	7.242869	-21.736923	
7.4000	38.924685	12.974848	14.978356	-132.010388	795.171812	4.595866	16.932501	38.675003	41.180370	45.000000	-39.988282	-1881.366844	-3709.153050	142.933411	180.000000	1091.079404	49.301336	22.297353	11.420143	6.580198	-45.000000	-39.210649	45.000000	-42.723948	1168.486450	-1173.217042	133.751578	-180.000000	-349.421811	39.110973	7.152454	-21.777039	
7.4100	38.960345	12.993251	14.919817	-134.650337	796.537389	4.449830	16.888501	38.591221	41.117740	45.000000	-40.253095	-1881.548597	-3708.887455	142.861947	180.000000	1091.204869	49.292652	22.327226	11.308910	6.697664	-45.000000	-39.173280	45.000000	-42.922025	1168.777144	-1172.985350	133.715460	-180.000000	-349.302271	39.058404	7.072255	-21.815197	
7.4200	38.997905	12.995646	14.850020	-137.315506	797.896840	4.302459	16.831874	38.513567	41.055998	45.000000	-40.502193	-1881.722876	-3708.633543	142.800901	180.000000	1091.326176	49.269561	22.354640	11.196097	6.798050	-45.000000	-39.141501	45.000000	-43.085548	1169.066443	-1172.771668	133.690933	-180.000000	-349.197970	38.963930	7.001623	-21.849060	
7.4300	39.049036	12.938567	14.708017	-139.999412	799.247894	4.153232	16.737319	38.483044	40.997012	45.000000	-40.636603	-1881.884850	-3708.412116	142.775400	180.000000	1091.442882	49.234881	22.381767	11.083213	6.840118	-45.000000	-39.147960	45.000000	-43.076288	1169.348602	-1172.613953	133.703417	-180.000000	-349.113485	38.822002	6.942224	-21.881268	
7.4400	39.102467	12.862135	14.551299	-142.694672	800.589696	4.002103	16.628799	38.459888	40.938249	45.000000	-40.756431	-1882.040220	-3708.200605	142.755469	180.000000	1091.556400	49.188680	22.405064	10.967575	6.864657	-45.000000	-39.161349	45.000000	-43.019700	1169.630134	-1172.478207	133.727700	-180.000000	-349.044201	38.625479	6.892463	-21.908233	
7.4500	39.151032	12.787779	14.404805	-145.392899	801.922412	3.849667	16.524221	38.437619	40.872799	45.000000	-40.913217	-1882.186336	-3707.980062	142.727706	180.000000	1091.671022	49.131548	22.422345	10.851248	6.890727	-45.000000	-39.175488	45.000000	-42.989668	1169.907383	-1172.337619	133.752199	-180.000000	-348.983697	38.370332	6.855742	-21.929691	
7.4600	39.184908	12.752897	14.331476	-148.084730	803.247151	3.697113	16.437258	38.351378	40.814251	45.000000	-41.193913	-1882.337417	-3707.744048	142.670699	180.000000	1091.783309	49.059225	22.432809	10.729913	6.949835	-45.000000	-39.144943	45.000000	-43.112049	1170.191212	-1172.164249	133.747942	-180.000000	-348.934280	38.045685	6.830044	-21.942339	
7.4700	39.215988	12.718435	14.267725	-150.760713	804.565084	3.546093	16.357282	38.251985	40.760548	45.000000	-41.499242	-1882.487329	-3707.509343	142.610228	180.000000	1091.888588	48.976279	22.437751	10.609858	7.013316	-45.000000	-39.111161	45.000000	-43.258031	1170.470756	-1171.988677	133.740896	-180.000000	-348.896326	37.655165	6.820020	-21.950341	
7.4800	39.238482	12.713837	14.260790	-153.412528	805.877325	3.398397	16.295252	38.099809	40.713945	45.000000	-41.890614	-1882.644113	-3707.268620	142.527108	180.000000	1091.982596	48.882730	22.436312	10.489387	7.106384	-45.000000	-39.039048	45.000000	-43.525205	1170.753530	-1171.789753	133.708146	-180.000000	-348.868272	37.204328	6.821272	-21.952006	
7.4900	39.263973	12.699557	14.241520	-156.033878	807.184011	3.255691	16.233845	37.958542	40.668371	45.000000	-42.257634	-1882.795934	-3707.041900	142.455977	180.000000	1092.063834	48.784054	22.433080	10.376768	7.192539	-45.000000	-38.976497	45.000000	-43.776981	1171.025134	-1171.597758	133.681020	-180.000000	-348.847219	36.711106	6.834301	-21.952811	
7.5000	39.292668	12.681542	14.225827	-158.621020	808.484899	3.119240	16.166450	37.814308	40.626234	45.000000	-42.601094	-1882.947420	-3706.836515	142.395291	180.000000	1092.131565	48.681524	22.431885	10.272828	7.275041	-45.000000	-38.903496	45.000000	-44.032991	1171.290451	-1171.414201	133.653591	-180.000000	-348.832031	36.195339	6.851364	-21.952883	
7.5100	39.334531	12.626954	14.155756	-161.171939	809.779197	2.989860	16.082387	37.721137	40.578120	45.000000	-42.840374	-1883.091016	-3706.661603	142.363802	180.000000	1092.187844	48.581573	22.434431	10.182391	7.327202	-45.000000	-38.858261	45.000000	-44.178996	1171.540363	-1171.264919	133.648815	-180.000000	-348.817251	35.683990	6.871283	-21.957319	
7.5200	39.379454	12.567235	14.083603	-163.686216	811.066586	2.867814	15.998698	37.645290	40.521044	45.000000	-43.058440	-1883.228106	-3706.497795	142.335073	180.000000	1092.238898	48.483104	22.438879	10.101738	7.379107	-45.000000	-38.811586	45.000000	-44.329875	1171.782250	-1171.121529	133.645905	-180.000000	-348.798357	35.194597	6.888627	-21.964357	
7.5300	39.426342	12.500588	14.003115	-166.163557	812.346756	2.752889	15.917562	37.589739	40.455485	45.000000	-43.258099	-1883.356156	-3706.342328	142.311661	180.000000	1092.288790	48.386172	22.444942	10.029359	7.427279	-45.000000	-38.774168	45.000000	-44.477533	1172.014054	-1170.984003	133.648630	-180.000000	-348.773826	34.735656	6.904034	-21.975787	
7.5400	39.474176	12.426208	13.919621	-168.603805	813.619932	2.644408	15.836157	37.543277	40.387592	45.000000	-43.445173	-1883.477392	-3706.196121	142.291213	180.000000	1092.339108	48.289611	22.454716	9.965017	7.473302	-45.000000	-38.739306	45.000000	-44.627367	1172.237635	-1170.853108	133.656173	-180.000000	-348.744903	34.310398	6.915728	-21.991054	
7.5500	39.523526	12.340148	13.824860	-171.006062	814.886134	2.541412	15.753877	37.510358	40.313361	45.000000	-43.615022	-1883.594902	-3706.056995	142.271372	180.000000	1092.394650	48.193915	22.468509	9.908049	7.514561	-45.000000	-38.710398	45.000000	-44.757431	1172.454225	-1170.732915	133.670373	-180.000000	-348.708096	33.919494	6.923489	-22.010939	
7.5600	39.574299	12.237836	13.712663	-173.369551	816.145411	2.442770	15.666579	37.487045	40.235024	45.000000	-43.751489	-1883.703259	-3705.930281	142.258634	180.000000	1092.448179	48.097800	22.487359	9.859185	7.550371	-45.000000	-38.689081	45.000000	-44.862859	1172.661417	-1170.622009	133.689699	-180.000000	-348.669958	33.564254	6.926522	-22.034447	
7.5700	39.625626	12.119063	13.582587	-175.693064	817.397162	2.347400	15.572978	37.470173	40.151447	45.000000	-43.852812	-1883.803172	-3705.816976	142.254162	180.000000	1092.502165	47.999240	22.511790	9.817175	7.580378	-45.000000	-38.676681	45.000000	-44.939739	1172.860761	-1170.522733	133.714632	-180.000000	-348.629611	33.243586	6.924420	-22.061723	
7.5800	39.677481	11.981593	13.429825	-177.975460	818.640456	2.254408	15.476063	37.455233	40.066162	45.000000	-43.922209	-1883.892627	-3705.714260	142.254927	180.000000	1092.549697	47.895913	22.538078	9.779832	7.607160	-45.000000	-38.673022	45.000000	-44.978581	1173.052606	-1170.434633	133.742837	-180.000000	-348.592414	32.958836	6.918868	-22.092085	
7.5900	39.726616	11.831133	13.268016	-180.215290	819.873921	2.163256	15.379315	37.430265	39.981607	45.000000	-43.977632	-1883.975482	-3705.621484	142.257707	180.000000	1092.595688	47.782693	22.562608	9.740084	7.635645	-45.000000	-38.671029	45.000000	-44.994245	1173.242910	-1170.356837	133.772316	-180.000000	-348.557012	32.709358	6.910162	-22.125421	
7.6000	39.773086	11.670193	13.099499	-182.411645	821.096268	2.073815	15.283964	37.386334	39.902855	45.000000	-44.024853	-1884.051042	-3705.537651	142.264594	180.000000	1092.632789	47.655043	22.582226	9.695059	7.666801	-45.000000	-38.668576	45.000000	-44.998715	1173.430574	-1170.285882	133.799194	-180.000000	-348.528630	32.494498	6.899712	-22.161084	
7.6100	39.814439	11.503551	12.933136	-184.563606	822.305994	1.986462	15.193901	37.329192	39.828262	45.000000	-44.085957	-1884.121984	-3705.454019	142.269156	180.000000	1092.669845	47.508682	22.595011	9.643374	7.702793	-45.000000	-38.668432	45.000000	-45.000000	1173.617357	-1170.224387	133.828584	-180.000000	-348.502563	32.313493	6.888910	-22.199029	
7.6200	39.850626	11.335013	12.771708	-186.670736	823.501629	1.902132	15.113303	37.256667	39.761080	45.000000	-44.181184	-1884.191734	-3705.363885	142.264534	180.000000	1092.705954	47.339823	22.597190	9.583816	7.745812	-45.000000	-38.669523	45.000000	-45.000000	1173.804380	-1170.171743	133.859428	-180.000000	-348.479425	32.165565	6.879040	-22.238132	
7.6300	39.879926	11.167247	12.620379	-188.732762	824.681523	1.822375	15.043304	37.172836	39.702461	45.000000	-44.320324	-1884.262700	-3705.265376	142.249480	180.000000	1092.747826	47.143959	22.587637	9.515372	7.796269	-45.000000	-38.677553	45.000000	-45.000000	1173.993626	-1170.131593	133.897429	-180.000000	-348.455260	32.050555	6.871117	-22.278774	
